REM DIRINDEX 1\4,1\2\5,1\2\6,1\3\7,1\3\8
REM DIRNAME folder01,folder02,folder03,folder04,folder05,folder06,folder07,folder08
TITLE ""
FILE "040_Day20_Check3_Sentences.mp3" MP3
  TRACK 01 AUDIO
    TITLE "0:"
    INDEX 01 00:00:00
  TRACK 02 AUDIO
    TITLE "4:cjc124_1290"
    INDEX 01 00:00:25
  TRACK 03 AUDIO
    TITLE "0:"
    INDEX 01 00:01:56
  TRACK 04 AUDIO
    TITLE "7:cjc124_1291"
    INDEX 01 00:02:24
  TRACK 05 AUDIO
    TITLE "0:"
    INDEX 01 00:05:42
  TRACK 06 AUDIO
    TITLE "8:cjc124_1292"
    INDEX 01 00:05:57
  TRACK 07 AUDIO
    TITLE "0:"
    INDEX 01 00:08:48
  TRACK 08 AUDIO
    TITLE "7:cjc124_1293"
    INDEX 01 00:09:08
  TRACK 09 AUDIO
    TITLE "0:"
    INDEX 01 00:11:60
  TRACK 10 AUDIO
    TITLE "8:cjc124_1294"
    INDEX 01 00:11:74
  TRACK 11 AUDIO
    TITLE "0:"
    INDEX 01 00:14:13
  TRACK 12 AUDIO
    TITLE "7:cjc124_1295"
    INDEX 01 00:14:49
  TRACK 13 AUDIO
    TITLE "0:"
    INDEX 01 00:16:63
  TRACK 14 AUDIO
    TITLE "8:cjc124_1296"
    INDEX 01 00:17:04
  TRACK 15 AUDIO
    TITLE "0:"
    INDEX 01 00:19:07
  TRACK 16 AUDIO
    TITLE "7:cjc124_1297"
    INDEX 01 00:19:44
  TRACK 17 AUDIO
    TITLE "0:"
    INDEX 01 00:22:62
  TRACK 18 AUDIO
    TITLE "8:cjc124_1298"
    INDEX 01 00:23:01
  TRACK 19 AUDIO
    TITLE "0:"
    INDEX 01 00:26:20
  TRACK 20 AUDIO
    TITLE "7:cjc124_1299"
    INDEX 01 00:26:58
  TRACK 21 AUDIO
    TITLE "0:"
    INDEX 01 00:29:38
  TRACK 22 AUDIO
    TITLE "8:cjc124_1300"
    INDEX 01 00:29:52
  TRACK 23 AUDIO
    TITLE "0:"
    INDEX 01 00:32:39
  TRACK 24 AUDIO
    TITLE "7:cjc124_1301"
    INDEX 01 00:32:74
  TRACK 25 AUDIO
    TITLE "0:"
    INDEX 01 00:37:10
  TRACK 26 AUDIO
    TITLE "8:cjc124_1302"
    INDEX 01 00:37:28
  TRACK 27 AUDIO
    TITLE "0:"
    INDEX 01 00:40:60
  TRACK 28 AUDIO
    TITLE "7:cjc124_1303"
    INDEX 01 00:41:20
  TRACK 29 AUDIO
    TITLE "0:"
    INDEX 01 00:44:03
  TRACK 30 AUDIO
    TITLE "8:cjc124_1304"
    INDEX 01 00:44:16
  TRACK 31 AUDIO
    TITLE "0:"
    INDEX 01 00:46:51
  TRACK 32 AUDIO
    TITLE "7:cjc124_1305"
    INDEX 01 00:47:15
  TRACK 33 AUDIO
    TITLE "0:"
    INDEX 01 00:50:27
  TRACK 34 AUDIO
    TITLE "8:cjc124_1306"
    INDEX 01 00:50:41
  TRACK 35 AUDIO
    TITLE "0:"
    INDEX 01 00:53:53
  TRACK 36 AUDIO
    TITLE "7:cjc124_1307"
    INDEX 01 00:54:13
  TRACK 37 AUDIO
    TITLE "0:"
    INDEX 01 00:57:13
  TRACK 38 AUDIO
    TITLE "8:cjc124_1308"
    INDEX 01 00:57:27
  TRACK 39 AUDIO
    TITLE "0:"
    INDEX 01 00:59:67
  TRACK 40 AUDIO
    TITLE "7:cjc124_1309"
    INDEX 01 01:00:29
  TRACK 41 AUDIO
    TITLE "0:"
    INDEX 01 01:03:45
  TRACK 42 AUDIO
    TITLE "8:cjc124_1310"
    INDEX 01 01:03:69
  TRACK 43 AUDIO
    TITLE "0:"
    INDEX 01 01:06:65
  TRACK 44 AUDIO
    TITLE "7:cjc124_1311"
    INDEX 01 01:07:29
  TRACK 45 AUDIO
    TITLE "0:"
    INDEX 01 01:09:40
  TRACK 46 AUDIO
    TITLE "8:cjc124_1312"
    INDEX 01 01:09:54
  TRACK 47 AUDIO
    TITLE "0:"
    INDEX 01 01:11:33
  TRACK 48 AUDIO
    TITLE "7:cjc124_1313"
    INDEX 01 01:12:01
  TRACK 49 AUDIO
    TITLE "0:"
    INDEX 01 01:15:42
  TRACK 50 AUDIO
    TITLE "8:cjc124_1314"
    INDEX 01 01:15:56
  TRACK 51 AUDIO
    TITLE "0:"
    INDEX 01 01:19:19
  TRACK 52 AUDIO
    TITLE "7:cjc124_1315"
    INDEX 01 01:19:54
  TRACK 53 AUDIO
    TITLE "0:"
    INDEX 01 01:21:69
  TRACK 54 AUDIO
    TITLE "8:cjc124_1316"
    INDEX 01 01:22:21
  TRACK 55 AUDIO
    TITLE "0:"
    INDEX 01 01:24:55
  TRACK 56 AUDIO
    TITLE "7:cjc124_1317"
    INDEX 01 01:25:17
  TRACK 57 AUDIO
    TITLE "0:"
    INDEX 01 01:27:69
  TRACK 58 AUDIO
    TITLE "8:cjc124_1318"
    INDEX 01 01:28:10
  TRACK 59 AUDIO
    TITLE "0:"
    INDEX 01 01:29:70
  TRACK 60 AUDIO
    TITLE "7:cjc124_1319"
    INDEX 01 01:30:30
  TRACK 61 AUDIO
    TITLE "0:"
    INDEX 01 01:32:60
  TRACK 62 AUDIO
    TITLE "8:cjc124_1320"
    INDEX 01 01:32:74
  TRACK 63 AUDIO
    TITLE "0:"
    INDEX 01 01:35:43
  TRACK 64 AUDIO
    TITLE "7:cjc124_1321"
    INDEX 01 01:36:03
  TRACK 65 AUDIO
    TITLE "0:"
    INDEX 01 01:39:41
  TRACK 66 AUDIO
    TITLE "8:cjc124_1322"
    INDEX 01 01:39:55
  TRACK 67 AUDIO
    TITLE "0:"
    INDEX 01 01:42:18
